PathFileType        4      (X/Y/Z)      C:\Users\pc\Desktop\IMUTRC\Sujet_08\Sujet_08_velo_60.trc         
DataRate	CameraRate	NumFrames	NumMarkers	Units	OrigDataRate	OrigDataStartFrame	OrigNumFrames
60.0	60.0	4	64	mm	60.0	117	934
Frame#	Time	pHipOrigin			pRightASI			pLeftASI			pRightCSI			pLeftCSI			pRightIschialTub			pLeftIschialTub			pSacrum			pL5SpinalProcess			pL3SpinalProcess			pT12SpinalProcess			pIJ			pT4SpinalProcess			pT8SpinalProcess			pPX			pC7SpinalProcess			pTopOfHead			pRightAuricularis			pLeftAuricularis			pBackOfHead			pRightAcromion			pLeftAcromion			pRightArmLatEpicondyle			pRightArmMedEpicondyle			pLeftArmLatEpicondyle			pLeftArmMedEpicondyle			pRightUlnarStyloid			pRightRadialStyloid			pRightOlecranon			pLeftUlnarStyloid			pLeftRadialStyloid			pLeftOlecranon			pRightTopOfHand			pRightPinky			pRightBallHand			pLeftTopOfHand			pLeftPinky			pLeftBallHand			pRightGreaterTrochanter			pRightKneeLatEpicondyle			pRightKneeMedEpicondyle			pRightPatella			pLeftGreaterTrochanter			pLeftKneeLatEpicondyle			pLeftKneeMedEpicondyle			pLeftPatella			pRightTibialTub			pRightLatMalleolus			pRightMedMalleolus			pLeftTibialTub			pLeftLatMalleolus			pLeftMedMalleolus			pRightHeelFoot			pRightFirstMetatarsal			pRightFifthMetatarsal			pRightPivotFoot			pRightHeelCenter			pRightToe			pLeftHeelFoot			pLeftFirstMetatarsal			pLeftFifthMetatarsal			pLeftPivotFoot			pLeftHeelCenter			pLeftToe			
		X1	Y1	Z1	X2	Y2	Z2	X3	Y3	Z3	X4	Y4	Z4	X5	Y5	Z5	X6	Y6	Z6	X7	Y7	Z7	X8	Y8	Z8	X9	Y9	Z9	X10	Y10	Z10	X11	Y11	Z11	X12	Y12	Z12	X13	Y13	Z13	X14	Y14	Z14	X15	Y15	Z15	X16	Y16	Z16	X17	Y17	Z17	X18	Y18	Z18	X19	Y19	Z19	X20	Y20	Z20	X21	Y21	Z21	X22	Y22	Z22	X23	Y23	Z23	X24	Y24	Z24	X25	Y25	Z25	X26	Y26	Z26	X27	Y27	Z27	X28	Y28	Z28	X29	Y29	Z29	X30	Y30	Z30	X31	Y31	Z31	X32	Y32	Z32	X33	Y33	Z33	X34	Y34	Z34	X35	Y35	Z35	X36	Y36	Z36	X37	Y37	Z37	X38	Y38	Z38	X39	Y39	Z39	X40	Y40	Z40	X41	Y41	Z41	X42	Y42	Z42	X43	Y43	Z43	X44	Y44	Z44	X45	Y45	Z45	X46	Y46	Z46	X47	Y47	Z47	X48	Y48	Z48	X49	Y49	Z49	X50	Y50	Z50	X51	Y51	Z51	X52	Y52	Z52	X53	Y53	Z53	X54	Y54	Z54	X55	Y55	Z55	X56	Y56	Z56	X57	Y57	Z57	X58	Y58	Z58	X59	Y59	Z59	X60	Y60	Z60	X61	Y61	Z61	X62	Y62	Z62	X63	Y63	Z63	X64	Y64	Z64	
117	1.933	0.0	1249.97582	7.653894434872941E-14	113.74905231887237	1327.21062	110.46053944415291	63.66487142460869	1319.77799	-148.90815049655615	86.87354311285583	1401.69858	89.80670814024415	45.63159486604853	1395.72016	-123.86757347752395	-56.497095690207225	1214.42842	67.31581071244837	-77.19763243197671	1211.35842	-39.535359132709395	-55.662740901703856	1288.91638	9.545615831840587	6.336139689265254	1371.32171	-4.297134010746801	70.89022757033953	1465.19916	-18.67376765847668	129.55711129802128	1551.64398	-31.29924965053024	371.02931239983513	1598.01717	-82.24205769402614	259.55469913691246	1686.56251	-58.58310854430434	195.8615767831444	1630.65615	-45.36724450023846	287.2127300561511	1518.03553	-64.69905687492631	300.3447029513211	1721.30202	-65.66496807401332	504.4921954996475	1830.85264	-161.74598455087778	474.3194546627662	1771.71469	-65.99808020097156	407.4632401704105	1769.93732	-182.79251998934427	411.73242325323434	1811.94789	-108.3715524062933	338.96639284256725	1664.91092	84.70781850801559	268.105665330589	1668.1425	-222.45962130483687	475.88972837110845	1418.66439	52.57449887420999	440.6144193348044	1403.96069	4.188087429903164	401.95117668720366	1410.42385	-175.72493730666574	373.97228369575885	1403.31437	-121.26441335683784	566.3334151201194	1183.88997	36.52818062963821	605.7635339277424	1204.5721	10.174223073473474	438.4109482293669	1404.12227	43.66898219243359	506.46547162114746	1185.66734	-173.8674916784927	550.0755439089928	1210.38894	-161.5838459174733	365.4590791986877	1397.33595	-156.72836288424307	732.1640843229293	1085.32673	97.27037455062164	642.1742732385302	1102.77727	79.10573617457152	602.2851359328665	1152.38205	35.48421119120563	654.7707150537888	1089.85094	-272.41176536301185	572.1179933108333	1105.36254	-231.69350805088965	542.7719402787533	1156.09837	-181.57584679335253	26.960268230123226	1224.93106	158.8171508288621	257.5621158275085	902.09604	150.91325346993224	268.0253893173203	904.03499	74.82415750489004	296.1204931673853	930.37239	115.54571301891309	2.224047966482349	1232.52528	-160.5621783946458	372.39132960704165	1091.14358	-182.08563416188804	385.1502072932759	1096.31411	-106.49584962617767	391.3971272280171	1134.93151	-146.5763461663097	296.2515603315696	856.8539	115.73289632819225	75.61387112423975	548.23784	160.17693853910077	77.69277778419689	544.03679	100.00104992967778	420.04716940610956	1058.98934	-153.66587441620257	280.5404631067731	705.13114	-188.76525824565437	291.7807224993426	699.96061	-129.68634626302088	-4.259650034957183	512.04413	128.3733390067692	111.36024877231205	408.79509	96.09322629152264	109.3862860476539	409.44141	170.56186724785712	126.05124003706246	394.89929	132.810558939082	25.112229836220724	489.0999	129.28653593432315	184.73889521888276	341.09345	134.95519515605753	223.73968033184266	640.98424	-151.36405230630436	372.01317901314667	586.04735	-141.79067840315275	359.55409729167445	589.11735	-215.35873939245215	385.37379067740346	580.06892	-181.27311953245632	258.99800188934495	630.64318	-157.7805805013934	458.6328342398698	551.631	-194.7711251554794	
118	1.95	0.0	1249.97582	7.653894434872941E-14	113.21556046358236	1327.69536	110.69461569997407	63.98312189807211	1319.77799	-148.8520343514613	86.20898582986334	1402.18332	89.85359123870863	45.63159486604853	1395.55858	-123.86757347752395	-56.656220926938936	1214.26684	67.28775263990094	-77.01045085917936	1211.03526	-39.66641644881616	-55.79380806588815	1288.7548	9.35843252256145	6.017889215801829	1371.32171	-4.353250155841646	70.5439288724062	1465.36074	-18.57075683035804	129.34186991619472	1551.80556	-31.00905724961423	370.8329076284849	1598.34033	-81.12819088498169	259.38635243810967	1686.88567	-57.628366971991596	195.5621611836756	1630.97931	-44.59967638912731	286.94137252922974	1518.1971	-64.09061400054686	300.0921820348761	1721.4636	-64.23285079150544	504.2865675297445	1831.49896	-159.64930824889564	474.16994283795805	1772.03785	-64.21965437245284	407.34178641814975	1770.74522	-181.17321939755732	411.5548533558787	1812.27104	-106.43400134104283	338.4236795252061	1664.91092	85.92469440869691	268.096443868518	1668.62724	-221.4768216599767	475.5903127716396	1418.98755	53.34206698532114	440.50218704461474	1404.28385	4.824588376830008	401.81088632446654	1410.74701	-174.92931112300718	373.6728680962901	1403.63753	-120.49684524572669	566.305357047572	1184.37471	36.68730586636992	605.735475855195	1205.05683	10.333348310205185	438.13959243892725	1404.44543	44.277415218735484	506.2502302393209	1185.9905	-173.57729927757666	550.019427763898	1210.87368	-161.26559544400988	365.31878883595056	1397.65911	-155.9327367005845	732.1921423954767	1085.81147	97.11124931388993	642.3333984752619	1103.26201	79.13379424711896	602.2851359328665	1152.70521	35.48421119120563	654.5835317445096	1090.49726	-272.2806981988275	571.9308198496318	1105.84727	-231.56243915022367	542.7158241336584	1156.42153	-181.25759631988905	28.57957866998777	1226.38527	158.93860631760464	269.45876816137326	910.98289	151.37023809128206	278.6490496054089	912.43711	75.05667928234226	306.5381352722002	940.06713	115.08561770434363	1.2131821374790057	1230.10159	-160.41228620454444	366.1201373115715	1075.47041	-181.87884366346861	379.7307573265593	1081.77199	-106.46701923848455	386.96969836823166	1119.25834	-147.52109396140568	305.3589308559898	864.6097	116.19026305131703	73.04944237206354	564.88049	161.69362198910346	75.12833918394315	560.1947	101.51773164319866	415.4233456230513	1044.77038	-153.49675366577233	284.8741060734745	687.6806	-189.14962848950694	296.08630739349655	682.67164	-129.91159127014177	-8.237371043724204	531.5952	130.46118406005107	103.26412791515193	423.66037	98.2752393396635	101.58036743948733	424.953	172.95912341430633	117.6088106338915	409.60299	135.0955810788597	20.31083615580703	507.68149	131.39320775000382	174.1436832167123	353.37346	137.35284153587745	229.9078635356759	621.91791	-151.91715135073466	379.58542142694034	571.18207	-141.9321312944063	367.4445901789315	574.0905	-215.44407613861085	393.4234105378741	565.84996	-181.33040805414515	265.4563774940941	612.54632	-158.11843816399707	467.47806869943963	539.51257	-194.68811520283535	
119	1.967	0.0	1249.97582	7.653894434872941E-14	112.65401227222674	1328.01852	111.0878073444494	64.43243953571984	1319.77799	-148.60873489708732	85.51637858591917	1402.3449	90.05961115846415	45.79072010278024	1395.55858	-123.83951540497654	-56.94641332785494	1214.26684	67.07251125807439	-76.63608424062112	1210.87368	-39.92855077718474	-55.92487523007244	1288.59322	9.171249213282316	5.858763979070115	1371.32171	-4.381308228389069	70.48781272731136	1465.52232	-18.25250635689461	129.07051238927332	1551.96713	-30.400614375234802	370.8705773764742	1598.50191	-79.48082237256973	259.2929550219146	1687.04725	-56.168181768858744	195.55293972160453	1631.14089	-43.61687674426715	286.90409299461123	1518.52026	-62.948689118955016	299.9707282826153	1721.78676	-62.613550199718404	504.37113196075745	1832.30685	-157.33739056508693	474.1234302567092	1772.19943	-62.09492173440503	407.4544089217102	1771.39153	-179.02042695048027	411.4802844385643	1812.75578	-104.15015331434087	337.8248599108278	1664.74934	87.45982251932344	268.50847038698794	1669.27355	-220.09158921241516	475.4219660728369	1419.14912	54.29680855763388	440.3618984183594	1404.60701	5.620204712411039	401.829722934943	1410.90859	-174.10563671487873	373.69170470676636	1403.79911	-119.67317083759825	566.2211828299297	1184.53629	37.16468157656505	605.4921781373029	1205.37999	10.78265609977537	437.9712440036427	1404.60701	45.232166639125765	506.19411409422605	1186.15208	-173.25904880411326	549.9352552827374	1210.87368	-160.78822958189227	365.33762544642696	1397.82068	-155.1090622924561	732.033017158745	1085.81147	97.0831912413425	642.1462151659828	1103.42359	79.26486141130324	602.0418364784927	1153.02837	35.93352882885334	654.2372231984988	1090.65884	-272.1776891071907	571.7436365403527	1106.00885	-231.43137198603938	542.5005827518319	1156.58311	-180.9674039189731	30.03975402504308	1227.67791	159.0320019973179	281.06523794239956	920.35448	151.6119830672871	289.3007679660449	921.32396	75.13007582306275	316.6375367516291	950.24661	114.56940798116108	0.2023244200714167	1227.67791	-160.2623824298838	358.491778752683	1058.34302	-181.41914029875164	373.1413226692215	1065.77566	-106.31633330060068	381.34422848175944	1102.13095	-148.18487081765673	314.46629964392827	873.01181	116.64763962251936	71.43974534412253	582.00787	163.3786504014271	73.54671007662711	576.99892	103.04363655527236	409.601470965229	1029.09721	-153.04666371297893	287.76639871103765	668.93742	-188.80371189334863	298.7914167217806	664.41321	-129.43460750979912	-10.698798815859302	551.14627	132.32416447150527	96.94643115002877	439.49512	100.60677406069004	95.60898095685678	441.27249	175.1876391956185	110.94481690731678	425.11458	137.53011677992737	16.997666054918522	526.26309	133.43414827218433	165.64513940492824	367.10769	139.95610430104108	234.28839944891934	601.8821	-151.6369625751129	385.0798241492282	554.86259	-141.4555377474344	372.96705097376685	557.60943	-215.12660782837068	399.07693676041185	549.85363	-180.82574658654832	270.0240868685392	593.31841	-157.96931828904144	473.76809760538606	525.45519	-194.07123129312626	
120	1.983	0.0	1249.97582	7.653894434872941E-14	112.06441411991942	1328.1801	111.64013581021575	65.19999779875344	1319.77799	-148.3093210341003	84.79570342135004	1402.50648	90.4247545784696	46.26808596489785	1395.55858	-123.75534292381604	-57.23660572877095	1214.26684	66.85726987624783	-76.42085270687207	1210.7121	-40.218744914582516	-55.868760821459375	1288.59322	8.853008587896422	5.699638742338403	1371.48329	-4.409366300936491	70.2725713454848	1465.52232	-17.962313955978612	128.93022376301798	1551.96713	-29.604998039653772	370.88018094032014	1598.82507	-77.67434020798537	259.17150126965385	1687.20883	-54.54888117707172	195.48759052987936	1631.30247	-42.31581851434782	286.8668018754335	1518.68184	-61.80675612576737	300.1394669312706	1721.94833	-60.77900822610484	504.37152391061	1833.11475	-154.54810701916057	474.02081137844306	1772.52259	-59.65193688641201	407.53897508920494	1772.19943	-176.7085191147491	411.5087327244824	1813.07894	-101.51998515706872	337.51622284928794	1664.74934	89.21019027529475	268.8924504174697	1669.75829	-218.54723963971753	475.1975014924575	1419.3107	55.569810451487584	440.32460903566346	1404.76859	6.762127857521151	402.13874036177606	1411.07017	-173.06671281332794	373.8416067449453	1403.96069	-118.66230327211309	565.790711650836	1184.69787	37.745058266801315	605.2208206103815	1205.37999	11.391098974154776	437.77483923229255	1404.76859	46.346033448170225	505.9508244879296	1186.15208	-172.80972942998378	549.6919558283635	1210.87368	-160.33891194424453	365.48752748460583	1397.98226	-154.09819472697095	731.8458338494659	1085.81147	97.21425840552679	641.9029157116088	1103.26201	79.71417904895095	601.7985370241186	1153.02837	36.382846466501064	653.8909163889698	1090.65884	-272.0746898636313	571.341211849247	1106.00885	-231.01011242093907	542.2572832974579	1156.58311	-180.51808628132534	31.31274607081925	1229.13212	159.25646484121552	292.5125726386166	930.37239	151.82566823426293	299.6342358532175	930.69554	75.14735621868842	326.6058594823145	960.91083	113.86602306029515	-0.9957264546928464	1225.09264	-159.9814132275206	349.47819585782867	1039.92301	-180.5473988310054	365.1666555643221	1048.4867	-105.75362084424684	374.5207193050823	1083.38778	-148.56768658314036	323.41454319513497	882.22182	117.07695812117426	71.00004111839837	599.61999	164.94183484811924	73.07894777835551	594.1263	104.76594623869626	402.3943719714407	1011.96982	-152.18453565715623	288.92716831470165	649.06319	-187.9427463660424	299.63393585198116	644.86214	-128.62975812758776	-11.99023552225934	571.02049	134.06531076540548	92.43522002245355	456.13776	102.92868552171552	91.09776982928156	458.39987	177.50955065664394	105.92817026051722	441.59565	139.9269891081198	14.882545092312498	545.491	135.19412944007922	158.92502953325874	382.13454	142.70889047557216	236.64720023119258	581.0384	-151.05696972313345	388.39337635189173	537.08889	-140.70719646017037	376.4116703406146	539.67415	-214.19108323182743	402.5215561272597	532.40309	-179.89022199000513	272.5139646630742	573.2826	-157.20214039130104	477.84920807108324	509.45886	-193.02347614287524	
